<?xml version="1.0" encoding="UTF-8"?>
<svg version="1.1" xmlns="http://www.w3.org/2000/svg" width="172" height="172">
<path d="M0 0 C16.79260566 13.40418671 29.41785728 33.38038471 32 55 C33.0760314 69.39810067 32.80330769 83.29876166 28 97 C27.63777344 98.05960937 27.27554688 99.11921875 26.90234375 100.2109375 C19.27946569 120.31466336 2.61411784 138.05478083 -17.00585938 146.90478516 C-39.59716851 156.33202561 -64.3306839 157.46111212 -87.25 148.33984375 C-109.19018816 139.07686188 -125.14581447 122.2674137 -134.64453125 100.46875 C-143.23514184 78.48470905 -142.60330404 54.1519937 -133.36499023 32.50952148 C-129.39849491 23.70693421 -124.30028265 16.28079021 -118 9 C-117.42765625 8.32710937 -116.8553125 7.65421875 -116.265625 6.9609375 C-86.45818229 -25.35505237 -33.63792382 -26.24497353 0 0 Z " fill="#C6D4EC" transform="translate(140,18)"/>
</svg>
